<mxfile host="app.diagrams.net" agent="Mozilla/5.0 (Macintosh; Intel Mac OS X 10_15_7) AppleWebKit/537.36 (KHTML, like Gecko) Chrome/130.0.0.0 Safari/537.36" version="24.8.4">
  <diagram id="C5RBs43oDa-KdzZeNtuy" name="Page-1">
    <mxGraphModel dx="794" dy="1155" grid="1" gridSize="10" guides="1" tooltips="1" connect="1" arrows="1" fold="1" page="1" pageScale="1" pageWidth="827" pageHeight="1169" math="0" shadow="0">
      <root>
        <mxCell id="WIyWlLk6GJQsqaUBKTNV-0" />
        <mxCell id="WIyWlLk6GJQsqaUBKTNV-1" parent="WIyWlLk6GJQsqaUBKTNV-0" />
        <mxCell id="WIyWlLk6GJQsqaUBKTNV-4" value="Yes" style="rounded=0;html=1;jettySize=auto;orthogonalLoop=1;fontSize=11;endArrow=block;endFill=0;endSize=8;strokeWidth=1;shadow=0;labelBackgroundColor=none;edgeStyle=orthogonalEdgeStyle;" parent="WIyWlLk6GJQsqaUBKTNV-1" source="WIyWlLk6GJQsqaUBKTNV-6" target="WIyWlLk6GJQsqaUBKTNV-10" edge="1">
          <mxGeometry y="10" relative="1" as="geometry">
            <mxPoint as="offset" />
          </mxGeometry>
        </mxCell>
        <mxCell id="sLKRuygk-bul_hNdxuqz-10" value="" style="edgeStyle=orthogonalEdgeStyle;rounded=0;orthogonalLoop=1;jettySize=auto;html=1;" parent="WIyWlLk6GJQsqaUBKTNV-1" source="WIyWlLk6GJQsqaUBKTNV-6" target="sLKRuygk-bul_hNdxuqz-8" edge="1">
          <mxGeometry relative="1" as="geometry" />
        </mxCell>
        <mxCell id="sLKRuygk-bul_hNdxuqz-11" value="No" style="edgeStyle=orthogonalEdgeStyle;rounded=0;orthogonalLoop=1;jettySize=auto;html=1;" parent="WIyWlLk6GJQsqaUBKTNV-1" source="WIyWlLk6GJQsqaUBKTNV-6" target="sLKRuygk-bul_hNdxuqz-8" edge="1">
          <mxGeometry x="0.0182" relative="1" as="geometry">
            <mxPoint as="offset" />
          </mxGeometry>
        </mxCell>
        <mxCell id="WIyWlLk6GJQsqaUBKTNV-6" value="Does request body have file" style="rhombus;whiteSpace=wrap;html=1;shadow=0;fontFamily=Helvetica;fontSize=12;align=center;strokeWidth=1;spacing=6;spacingTop=-4;" parent="WIyWlLk6GJQsqaUBKTNV-1" vertex="1">
          <mxGeometry x="260" y="150" width="100" height="80" as="geometry" />
        </mxCell>
        <mxCell id="WIyWlLk6GJQsqaUBKTNV-8" value="No" style="rounded=0;html=1;jettySize=auto;orthogonalLoop=1;fontSize=11;endArrow=block;endFill=0;endSize=8;strokeWidth=1;shadow=0;labelBackgroundColor=none;edgeStyle=orthogonalEdgeStyle;entryX=0.5;entryY=1;entryDx=0;entryDy=0;" parent="WIyWlLk6GJQsqaUBKTNV-1" source="WIyWlLk6GJQsqaUBKTNV-10" target="sLKRuygk-bul_hNdxuqz-8" edge="1">
          <mxGeometry x="0.2308" y="-10" relative="1" as="geometry">
            <mxPoint as="offset" />
            <mxPoint x="400" y="310" as="targetPoint" />
            <Array as="points">
              <mxPoint x="460" y="310" />
            </Array>
          </mxGeometry>
        </mxCell>
        <mxCell id="WIyWlLk6GJQsqaUBKTNV-9" value="Yes" style="edgeStyle=orthogonalEdgeStyle;rounded=0;html=1;jettySize=auto;orthogonalLoop=1;fontSize=11;endArrow=block;endFill=0;endSize=8;strokeWidth=1;shadow=0;labelBackgroundColor=none;entryX=0.5;entryY=0;entryDx=0;entryDy=0;" parent="WIyWlLk6GJQsqaUBKTNV-1" source="WIyWlLk6GJQsqaUBKTNV-10" edge="1" target="sLKRuygk-bul_hNdxuqz-16">
          <mxGeometry x="-0.149" y="10" relative="1" as="geometry">
            <mxPoint as="offset" />
            <mxPoint x="310" y="420" as="targetPoint" />
          </mxGeometry>
        </mxCell>
        <mxCell id="WIyWlLk6GJQsqaUBKTNV-10" value="File openable?" style="rhombus;whiteSpace=wrap;html=1;shadow=0;fontFamily=Helvetica;fontSize=12;align=center;strokeWidth=1;spacing=6;spacingTop=-4;" parent="WIyWlLk6GJQsqaUBKTNV-1" vertex="1">
          <mxGeometry x="250" y="270" width="120" height="80" as="geometry" />
        </mxCell>
        <mxCell id="sLKRuygk-bul_hNdxuqz-6" value="" style="edgeStyle=orthogonalEdgeStyle;rounded=0;orthogonalLoop=1;jettySize=auto;html=1;" parent="WIyWlLk6GJQsqaUBKTNV-1" source="sLKRuygk-bul_hNdxuqz-2" target="sLKRuygk-bul_hNdxuqz-5" edge="1">
          <mxGeometry relative="1" as="geometry" />
        </mxCell>
        <mxCell id="sLKRuygk-bul_hNdxuqz-2" value="Pipeline start" style="rounded=1;whiteSpace=wrap;html=1;fontSize=12;glass=0;strokeWidth=1;shadow=0;" parent="WIyWlLk6GJQsqaUBKTNV-1" vertex="1">
          <mxGeometry x="250" width="120" height="40" as="geometry" />
        </mxCell>
        <mxCell id="sLKRuygk-bul_hNdxuqz-7" value="" style="edgeStyle=orthogonalEdgeStyle;rounded=0;orthogonalLoop=1;jettySize=auto;html=1;" parent="WIyWlLk6GJQsqaUBKTNV-1" source="sLKRuygk-bul_hNdxuqz-5" target="WIyWlLk6GJQsqaUBKTNV-6" edge="1">
          <mxGeometry relative="1" as="geometry" />
        </mxCell>
        <mxCell id="sLKRuygk-bul_hNdxuqz-5" value="Request /classify_file" style="shape=parallelogram;perimeter=parallelogramPerimeter;whiteSpace=wrap;html=1;fixedSize=1;" parent="WIyWlLk6GJQsqaUBKTNV-1" vertex="1">
          <mxGeometry x="230" y="70" width="160" height="50" as="geometry" />
        </mxCell>
        <mxCell id="sLKRuygk-bul_hNdxuqz-8" value="Error" style="shape=parallelogram;perimeter=parallelogramPerimeter;whiteSpace=wrap;html=1;fixedSize=1;size=10;" parent="WIyWlLk6GJQsqaUBKTNV-1" vertex="1">
          <mxGeometry x="410" y="175" width="100" height="30" as="geometry" />
        </mxCell>
        <mxCell id="gKYMKnjZdPEMWxjtBoQb-3" style="edgeStyle=orthogonalEdgeStyle;rounded=0;orthogonalLoop=1;jettySize=auto;html=1;exitX=0;exitY=1;exitDx=0;exitDy=0;entryX=0.5;entryY=0;entryDx=0;entryDy=0;" edge="1" parent="WIyWlLk6GJQsqaUBKTNV-1" source="sLKRuygk-bul_hNdxuqz-15" target="sLKRuygk-bul_hNdxuqz-32">
          <mxGeometry relative="1" as="geometry" />
        </mxCell>
        <mxCell id="gKYMKnjZdPEMWxjtBoQb-4" value="1st Pass" style="edgeLabel;html=1;align=center;verticalAlign=middle;resizable=0;points=[];" vertex="1" connectable="0" parent="gKYMKnjZdPEMWxjtBoQb-3">
          <mxGeometry x="0.1318" y="3" relative="1" as="geometry">
            <mxPoint as="offset" />
          </mxGeometry>
        </mxCell>
        <mxCell id="gKYMKnjZdPEMWxjtBoQb-18" value="" style="edgeStyle=orthogonalEdgeStyle;rounded=0;orthogonalLoop=1;jettySize=auto;html=1;exitX=0.75;exitY=1;exitDx=0;exitDy=0;" edge="1" parent="WIyWlLk6GJQsqaUBKTNV-1" source="sLKRuygk-bul_hNdxuqz-15" target="gKYMKnjZdPEMWxjtBoQb-17">
          <mxGeometry relative="1" as="geometry" />
        </mxCell>
        <mxCell id="gKYMKnjZdPEMWxjtBoQb-19" value="2nd Pass" style="edgeLabel;html=1;align=center;verticalAlign=middle;resizable=0;points=[];" vertex="1" connectable="0" parent="gKYMKnjZdPEMWxjtBoQb-18">
          <mxGeometry x="-0.32" y="-1" relative="1" as="geometry">
            <mxPoint as="offset" />
          </mxGeometry>
        </mxCell>
        <mxCell id="sLKRuygk-bul_hNdxuqz-15" value="&lt;font style=&quot;font-size: 14px;&quot;&gt;Text Zero Shot NLP Classifier&lt;/font&gt;" style="rounded=1;whiteSpace=wrap;html=1;align=center;verticalAlign=top;" parent="WIyWlLk6GJQsqaUBKTNV-1" vertex="1">
          <mxGeometry x="90" y="470" width="500" height="90" as="geometry" />
        </mxCell>
        <mxCell id="sLKRuygk-bul_hNdxuqz-16" value="Forward file name" style="whiteSpace=wrap;html=1;" parent="WIyWlLk6GJQsqaUBKTNV-1" vertex="1">
          <mxGeometry x="250" y="380" width="120" height="50" as="geometry" />
        </mxCell>
        <mxCell id="sLKRuygk-bul_hNdxuqz-29" style="edgeStyle=orthogonalEdgeStyle;rounded=0;orthogonalLoop=1;jettySize=auto;html=1;exitX=0.5;exitY=1;exitDx=0;exitDy=0;entryX=0.571;entryY=-0.005;entryDx=0;entryDy=0;entryPerimeter=0;" parent="WIyWlLk6GJQsqaUBKTNV-1" source="sLKRuygk-bul_hNdxuqz-16" target="sLKRuygk-bul_hNdxuqz-15" edge="1">
          <mxGeometry relative="1" as="geometry" />
        </mxCell>
        <mxCell id="sLKRuygk-bul_hNdxuqz-35" value="" style="edgeStyle=orthogonalEdgeStyle;rounded=0;orthogonalLoop=1;jettySize=auto;html=1;" parent="WIyWlLk6GJQsqaUBKTNV-1" source="sLKRuygk-bul_hNdxuqz-32" target="sLKRuygk-bul_hNdxuqz-34" edge="1">
          <mxGeometry relative="1" as="geometry" />
        </mxCell>
        <mxCell id="sLKRuygk-bul_hNdxuqz-36" value="Yes" style="edgeLabel;html=1;align=center;verticalAlign=middle;resizable=0;points=[];" parent="sLKRuygk-bul_hNdxuqz-35" vertex="1" connectable="0">
          <mxGeometry x="-0.2333" y="1" relative="1" as="geometry">
            <mxPoint as="offset" />
          </mxGeometry>
        </mxCell>
        <mxCell id="sLKRuygk-bul_hNdxuqz-38" value="" style="edgeStyle=orthogonalEdgeStyle;rounded=0;orthogonalLoop=1;jettySize=auto;html=1;" parent="WIyWlLk6GJQsqaUBKTNV-1" source="sLKRuygk-bul_hNdxuqz-32" target="sLKRuygk-bul_hNdxuqz-37" edge="1">
          <mxGeometry relative="1" as="geometry" />
        </mxCell>
        <mxCell id="sLKRuygk-bul_hNdxuqz-39" value="No" style="edgeLabel;html=1;align=center;verticalAlign=middle;resizable=0;points=[];" parent="sLKRuygk-bul_hNdxuqz-38" vertex="1" connectable="0">
          <mxGeometry x="-0.175" y="-1" relative="1" as="geometry">
            <mxPoint as="offset" />
          </mxGeometry>
        </mxCell>
        <mxCell id="sLKRuygk-bul_hNdxuqz-34" value="Return output" style="rounded=1;whiteSpace=wrap;html=1;" parent="WIyWlLk6GJQsqaUBKTNV-1" vertex="1">
          <mxGeometry x="37.5" y="1040" width="120" height="60" as="geometry" />
        </mxCell>
        <mxCell id="sLKRuygk-bul_hNdxuqz-41" value="" style="edgeStyle=orthogonalEdgeStyle;rounded=0;orthogonalLoop=1;jettySize=auto;html=1;" parent="WIyWlLk6GJQsqaUBKTNV-1" source="sLKRuygk-bul_hNdxuqz-37" target="sLKRuygk-bul_hNdxuqz-40" edge="1">
          <mxGeometry relative="1" as="geometry" />
        </mxCell>
        <mxCell id="sLKRuygk-bul_hNdxuqz-44" value="yes" style="edgeLabel;html=1;align=center;verticalAlign=middle;resizable=0;points=[];" parent="sLKRuygk-bul_hNdxuqz-41" vertex="1" connectable="0">
          <mxGeometry x="-0.15" y="-1" relative="1" as="geometry">
            <mxPoint as="offset" />
          </mxGeometry>
        </mxCell>
        <mxCell id="gKYMKnjZdPEMWxjtBoQb-9" value="" style="edgeStyle=orthogonalEdgeStyle;rounded=0;orthogonalLoop=1;jettySize=auto;html=1;" edge="1" parent="WIyWlLk6GJQsqaUBKTNV-1" source="sLKRuygk-bul_hNdxuqz-37" target="gKYMKnjZdPEMWxjtBoQb-8">
          <mxGeometry relative="1" as="geometry" />
        </mxCell>
        <mxCell id="gKYMKnjZdPEMWxjtBoQb-35" value="No" style="edgeLabel;html=1;align=center;verticalAlign=middle;resizable=0;points=[];" vertex="1" connectable="0" parent="gKYMKnjZdPEMWxjtBoQb-9">
          <mxGeometry x="-0.2" relative="1" as="geometry">
            <mxPoint as="offset" />
          </mxGeometry>
        </mxCell>
        <mxCell id="sLKRuygk-bul_hNdxuqz-37" value="is_image" style="rhombus;whiteSpace=wrap;html=1;" parent="WIyWlLk6GJQsqaUBKTNV-1" vertex="1">
          <mxGeometry x="223.75" y="700" width="115" height="100" as="geometry" />
        </mxCell>
        <mxCell id="gKYMKnjZdPEMWxjtBoQb-12" style="edgeStyle=orthogonalEdgeStyle;rounded=0;orthogonalLoop=1;jettySize=auto;html=1;exitX=0.5;exitY=1;exitDx=0;exitDy=0;entryX=0.5;entryY=0;entryDx=0;entryDy=0;" edge="1" parent="WIyWlLk6GJQsqaUBKTNV-1" source="sLKRuygk-bul_hNdxuqz-40" target="gKYMKnjZdPEMWxjtBoQb-11">
          <mxGeometry relative="1" as="geometry">
            <mxPoint x="288" y="990" as="targetPoint" />
          </mxGeometry>
        </mxCell>
        <mxCell id="sLKRuygk-bul_hNdxuqz-40" value="Image Zero Shot NLP Classifier" style="rounded=1;whiteSpace=wrap;html=1;" parent="WIyWlLk6GJQsqaUBKTNV-1" vertex="1">
          <mxGeometry x="192.5" y="845" width="190" height="110" as="geometry" />
        </mxCell>
        <mxCell id="sLKRuygk-bul_hNdxuqz-46" value="Return output" style="rounded=1;whiteSpace=wrap;html=1;" parent="WIyWlLk6GJQsqaUBKTNV-1" vertex="1">
          <mxGeometry x="960" y="1030" width="120" height="60" as="geometry" />
        </mxCell>
        <mxCell id="sLKRuygk-bul_hNdxuqz-32" value="Does filename meet threshold" style="rhombus;whiteSpace=wrap;html=1;" parent="WIyWlLk6GJQsqaUBKTNV-1" vertex="1">
          <mxGeometry x="30" y="685" width="127.5" height="130" as="geometry" />
        </mxCell>
        <mxCell id="gKYMKnjZdPEMWxjtBoQb-10" style="edgeStyle=orthogonalEdgeStyle;rounded=0;orthogonalLoop=1;jettySize=auto;html=1;exitX=0.5;exitY=0;exitDx=0;exitDy=0;entryX=0.38;entryY=0.989;entryDx=0;entryDy=0;entryPerimeter=0;" edge="1" parent="WIyWlLk6GJQsqaUBKTNV-1" source="gKYMKnjZdPEMWxjtBoQb-8" target="sLKRuygk-bul_hNdxuqz-15">
          <mxGeometry relative="1" as="geometry">
            <mxPoint x="390" y="680" as="targetPoint" />
          </mxGeometry>
        </mxCell>
        <mxCell id="gKYMKnjZdPEMWxjtBoQb-8" value="Open and Forward file content" style="whiteSpace=wrap;html=1;" vertex="1" parent="WIyWlLk6GJQsqaUBKTNV-1">
          <mxGeometry x="221.25" y="600" width="120" height="55" as="geometry" />
        </mxCell>
        <mxCell id="gKYMKnjZdPEMWxjtBoQb-24" value="" style="edgeStyle=orthogonalEdgeStyle;rounded=0;orthogonalLoop=1;jettySize=auto;html=1;" edge="1" parent="WIyWlLk6GJQsqaUBKTNV-1" source="gKYMKnjZdPEMWxjtBoQb-11" target="gKYMKnjZdPEMWxjtBoQb-23">
          <mxGeometry relative="1" as="geometry" />
        </mxCell>
        <mxCell id="gKYMKnjZdPEMWxjtBoQb-36" value="No" style="edgeLabel;html=1;align=center;verticalAlign=middle;resizable=0;points=[];" vertex="1" connectable="0" parent="gKYMKnjZdPEMWxjtBoQb-24">
          <mxGeometry x="0.0098" y="1" relative="1" as="geometry">
            <mxPoint as="offset" />
          </mxGeometry>
        </mxCell>
        <mxCell id="gKYMKnjZdPEMWxjtBoQb-11" value="Does image meet threshold" style="rhombus;whiteSpace=wrap;html=1;" vertex="1" parent="WIyWlLk6GJQsqaUBKTNV-1">
          <mxGeometry x="223.75" y="995" width="127.5" height="130" as="geometry" />
        </mxCell>
        <mxCell id="gKYMKnjZdPEMWxjtBoQb-13" value="Yes" style="edgeStyle=orthogonalEdgeStyle;rounded=0;orthogonalLoop=1;jettySize=auto;html=1;exitX=0;exitY=0.5;exitDx=0;exitDy=0;entryX=0.994;entryY=0.367;entryDx=0;entryDy=0;entryPerimeter=0;" edge="1" parent="WIyWlLk6GJQsqaUBKTNV-1" source="gKYMKnjZdPEMWxjtBoQb-11" target="sLKRuygk-bul_hNdxuqz-34">
          <mxGeometry relative="1" as="geometry" />
        </mxCell>
        <mxCell id="gKYMKnjZdPEMWxjtBoQb-21" value="" style="edgeStyle=orthogonalEdgeStyle;rounded=0;orthogonalLoop=1;jettySize=auto;html=1;" edge="1" parent="WIyWlLk6GJQsqaUBKTNV-1" source="gKYMKnjZdPEMWxjtBoQb-17" target="gKYMKnjZdPEMWxjtBoQb-20">
          <mxGeometry relative="1" as="geometry" />
        </mxCell>
        <mxCell id="gKYMKnjZdPEMWxjtBoQb-22" value="Yes" style="edgeLabel;html=1;align=center;verticalAlign=middle;resizable=0;points=[];" vertex="1" connectable="0" parent="gKYMKnjZdPEMWxjtBoQb-21">
          <mxGeometry x="-0.2933" y="2" relative="1" as="geometry">
            <mxPoint as="offset" />
          </mxGeometry>
        </mxCell>
        <mxCell id="gKYMKnjZdPEMWxjtBoQb-31" value="No" style="edgeStyle=orthogonalEdgeStyle;rounded=0;orthogonalLoop=1;jettySize=auto;html=1;exitX=1;exitY=0.5;exitDx=0;exitDy=0;entryX=0.5;entryY=0;entryDx=0;entryDy=0;" edge="1" parent="WIyWlLk6GJQsqaUBKTNV-1" source="gKYMKnjZdPEMWxjtBoQb-17" target="gKYMKnjZdPEMWxjtBoQb-23">
          <mxGeometry relative="1" as="geometry" />
        </mxCell>
        <mxCell id="gKYMKnjZdPEMWxjtBoQb-17" value="Does file_contents meet threshold" style="rhombus;whiteSpace=wrap;html=1;direction=south;" vertex="1" parent="WIyWlLk6GJQsqaUBKTNV-1">
          <mxGeometry x="400" y="750" width="130" height="127.5" as="geometry" />
        </mxCell>
        <mxCell id="gKYMKnjZdPEMWxjtBoQb-20" value="Return output" style="rounded=1;whiteSpace=wrap;html=1;" vertex="1" parent="WIyWlLk6GJQsqaUBKTNV-1">
          <mxGeometry x="640" y="785" width="120" height="60" as="geometry" />
        </mxCell>
        <mxCell id="gKYMKnjZdPEMWxjtBoQb-26" value="" style="edgeStyle=orthogonalEdgeStyle;rounded=0;orthogonalLoop=1;jettySize=auto;html=1;" edge="1" parent="WIyWlLk6GJQsqaUBKTNV-1" source="gKYMKnjZdPEMWxjtBoQb-23" target="gKYMKnjZdPEMWxjtBoQb-25">
          <mxGeometry relative="1" as="geometry" />
        </mxCell>
        <mxCell id="gKYMKnjZdPEMWxjtBoQb-34" style="edgeStyle=orthogonalEdgeStyle;rounded=0;orthogonalLoop=1;jettySize=auto;html=1;exitX=0.5;exitY=1;exitDx=0;exitDy=0;entryX=0.5;entryY=0;entryDx=0;entryDy=0;" edge="1" parent="WIyWlLk6GJQsqaUBKTNV-1" source="gKYMKnjZdPEMWxjtBoQb-23" target="gKYMKnjZdPEMWxjtBoQb-33">
          <mxGeometry relative="1" as="geometry" />
        </mxCell>
        <mxCell id="gKYMKnjZdPEMWxjtBoQb-23" value="Do Either of the 2 scores meet the MINIMUM score" style="rhombus;whiteSpace=wrap;html=1;" vertex="1" parent="WIyWlLk6GJQsqaUBKTNV-1">
          <mxGeometry x="414" y="940" width="127.5" height="130" as="geometry" />
        </mxCell>
        <mxCell id="gKYMKnjZdPEMWxjtBoQb-25" value="Return highest" style="rounded=1;whiteSpace=wrap;html=1;" vertex="1" parent="WIyWlLk6GJQsqaUBKTNV-1">
          <mxGeometry x="642.5" y="1030" width="120" height="60" as="geometry" />
        </mxCell>
        <mxCell id="gKYMKnjZdPEMWxjtBoQb-33" value="File Unknown" style="shape=parallelogram;perimeter=parallelogramPerimeter;whiteSpace=wrap;html=1;fixedSize=1;size=10;" vertex="1" parent="WIyWlLk6GJQsqaUBKTNV-1">
          <mxGeometry x="406.63" y="1100" width="142.25" height="50" as="geometry" />
        </mxCell>
      </root>
    </mxGraphModel>
  </diagram>
</mxfile>
